<svg width="16" height="12" viewBox="0 0 16 12" fill="none" xmlns="http://www.w3.org/2000/svg">
<path fill-rule="evenodd" clip-rule="evenodd" d="M15.5 5.75C15.5 5.33579 15.1642 5 14.75 5H0.75C0.335786 5 0 5.33579 0 5.75C0 6.16421 0.335786 6.5 0.75 6.5H14.75C15.1642 6.5 15.5 6.16421 15.5 5.75Z" fill="white"/>
<path fill-rule="evenodd" clip-rule="evenodd" d="M15.5 0.75C15.5 0.335786 15.1642 0 14.75 0H0.75C0.335786 0 0 0.335786 0 0.75C0 1.16421 0.335786 1.5 0.75 1.5H14.75C15.1642 1.5 15.5 1.16421 15.5 0.75Z" fill="white"/>
<path fill-rule="evenodd" clip-rule="evenodd" d="M15.5 10.75C15.5 10.3358 15.1642 10 14.75 10H0.75C0.335786 10 0 10.3358 0 10.75C0 11.1642 0.335786 11.5 0.75 11.5H14.75C15.1642 11.5 15.5 11.1642 15.5 10.75Z" fill="white"/>
</svg>
